<?xml version="1.0" standalone="no"?>
<!DOCTYPE svg PUBLIC "-//W3C//DTD SVG 20010904//EN"
 "http://www.w3.org/TR/2001/REC-SVG-20010904/DTD/svg10.dtd">
<svg version="1.0" xmlns="http://www.w3.org/2000/svg"
 width="744.000000pt" height="724.000000pt" viewBox="0 0 744.000000 724.000000"
 preserveAspectRatio="xMidYMid meet">

<g transform="translate(0.000000,724.000000) scale(0.100000,-0.100000)"
fill="#000000" stroke="none">
<path d="M3490 7074 c-19 -2 -78 -9 -130 -14 -839 -93 -1639 -514 -2200 -1155
-467 -535 -752 -1177 -836 -1885 -24 -198 -24 -583 -1 -775 109 -886 518
-1653 1187 -2230 1124 -967 2742 -1106 4008 -342 317 191 575 406 815 678 588
668 891 1505 863 2384 -23 757 -276 1447 -750 2045 -121 153 -392 426 -541
543 -501 397 -1047 633 -1685 728 -115 17 -201 22 -420 24 -151 2 -291 1 -310
-1z m540 -174 c568 -52 1076 -232 1555 -553 264 -177 547 -443 764 -720 176
-225 376 -586 481 -871 156 -420 225 -925 190 -1372 -91 -1148 -776 -2167
-1800 -2680 -477 -238 -937 -347 -1470 -347 -512 0 -956 101 -1409 319 -330
159 -590 339 -847 587 -348 336 -605 710 -778 1133 -360 882 -317 1877 116
2722 416 812 1149 1416 2022 1667 214 61 381 91 656 118 83 9 415 6 520 -3z"/>
<path d="M4509 6556 c12 -18 21 -38 21 -43 0 -6 -30 -13 -67 -16 -55 -6 -70
-4 -79 8 -10 14 -16 12 -45 -12 -69 -57 -84 -88 -54 -113 22 -18 41 -6 64 38
11 22 26 42 33 44 7 3 43 3 80 0 74 -5 90 -20 67 -64 -7 -13 -15 -39 -18 -58
-5 -27 -14 -39 -40 -52 -69 -35 -94 -88 -40 -88 35 0 16 -24 -32 -40 -60 -20
-67 -26 -62 -52 4 -22 8 -23 91 -20 110 4 147 28 80 51 l-31 11 21 23 c26 28
28 44 5 69 -20 22 -12 31 39 48 47 15 55 26 32 51 -14 16 -15 23 -5 45 9 22
17 25 49 23 20 -1 47 -11 59 -22 27 -24 53 -16 53 17 0 33 -35 64 -79 72 -57
9 -61 12 -61 39 0 34 -42 75 -75 75 l-27 0 21 -34z m126 -117 c5 -6 2 -9 -10
-9 -34 0 -65 12 -59 22 7 11 54 2 69 -13z"/>
<path d="M3105 6559 c-11 -4 -32 -8 -47 -8 -33 -1 -38 -25 -9 -41 28 -14 108
-13 114 3 5 15 -8 43 -25 49 -7 3 -22 2 -33 -3z"/>
<path d="M2860 6550 c-13 -9 -11 -13 9 -29 22 -16 23 -23 16 -62 -4 -24 -7
-81 -6 -126 2 -46 0 -91 -3 -101 -4 -10 -27 -33 -51 -51 -27 -19 -45 -40 -45
-52 0 -35 28 -33 71 6 l40 36 22 -43 c26 -50 67 -67 67 -26 0 13 -9 34 -20 48
-11 14 -19 32 -19 40 0 8 6 3 14 -12 11 -19 20 -25 36 -21 19 5 20 3 14 -29
-7 -38 11 -62 42 -56 27 5 27 39 -1 109 -28 67 -32 94 -16 104 6 3 10 17 10
31 0 17 -5 24 -20 24 -14 0 -20 7 -20 24 0 12 -5 37 -11 55 -9 24 -17 31 -37
31 l-27 1 28 24 c31 27 34 47 11 69 -17 18 -81 21 -104 6z m90 -166 c0 -16
-16 -19 -25 -4 -8 13 4 32 16 25 5 -4 9 -13 9 -21z m-4 -75 c3 -6 2 -15 -4
-21 -6 -6 -11 -2 -15 11 -5 22 7 29 19 10z"/>
<path d="M3117 6424 c-35 -34 -52 -44 -67 -39 -24 8 -27 -12 -6 -40 12 -17 17
-18 40 -7 15 7 29 12 31 12 11 0 4 -28 -16 -64 -17 -32 -19 -44 -10 -63 14
-30 30 -26 58 16 l22 32 11 -41 c9 -32 18 -44 42 -54 72 -31 194 44 147 91
-17 17 -60 3 -70 -24 -8 -21 -15 -24 -46 -21 -35 3 -38 6 -44 41 -3 21 -11 43
-18 50 -17 17 -13 58 8 98 15 27 17 39 8 48 -20 20 -41 12 -90 -35z"/>
<path d="M4411 6386 c-11 -26 -18 -53 -14 -62 10 -27 38 -10 53 34 13 38 13
44 -2 58 -15 15 -18 13 -37 -30z"/>
<path d="M1802 5950 c-51 -37 -58 -64 -12 -48 17 5 33 14 36 19 8 14 21 11 28
-6 8 -23 -25 -87 -42 -80 -8 3 -25 8 -39 11 -25 7 -25 6 -10 -22 23 -45 102
-122 129 -126 24 -3 29 -24 13 -60 -5 -13 3 -28 28 -53 40 -40 64 -44 97 -15
12 11 26 17 31 15 4 -3 20 11 35 30 22 30 27 47 28 101 1 36 -2 70 -5 76 -14
22 -68 12 -109 -21 -32 -26 -40 -29 -40 -15 0 10 -6 25 -14 33 -15 18 -46 106
-46 131 0 22 -21 47 -46 54 -14 4 -34 -3 -62 -24z m92 -156 c9 -35 1 -41 -24
-19 -15 14 -17 21 -9 32 17 20 26 16 33 -13z m166 -65 c0 -16 -89 -99 -95 -90
-7 12 76 112 86 105 5 -3 9 -10 9 -15z m-10 -98 c-11 -21 -29 -36 -36 -29 -4
5 33 48 42 48 2 0 0 -9 -6 -19z"/>
<path d="M3465 5904 c-507 -68 -940 -278 -1304 -629 -371 -359 -598 -802 -678
-1325 -24 -160 -24 -483 0 -640 78 -503 298 -940 652 -1295 355 -355 785 -571
1300 -651 153 -24 479 -24 635 0 487 74 906 277 1256 609 572 541 823 1337
668 2117 -67 336 -225 675 -451 965 -144 184 -394 407 -596 529 -77 46 -270
146 -324 167 -304 120 -567 170 -882 168 -97 -1 -221 -7 -276 -15z m1549 -921
c9 -339 34 -1121 41 -1268 l5 -120 -48 90 c-55 103 -113 191 -186 285 l-51 64
-9 311 c-4 170 -10 312 -11 313 -2 2 -126 -59 -277 -135 l-273 -139 -55 12
c-30 7 -69 13 -86 13 -19 1 -34 7 -38 17 -3 9 -6 82 -6 162 l0 147 52 25 c29
14 249 125 488 247 239 122 438 222 441 223 3 0 9 -111 13 -247z m-1070 45
c14 -278 26 -762 19 -768 -5 -4 -126 -67 -271 -141 l-262 -134 -33 19 c-227
133 -400 188 -641 205 -225 15 -484 -13 -759 -83 -78 -20 -124 -28 -112 -20
10 8 22 14 25 14 4 0 265 132 581 293 316 162 763 389 994 507 231 117 424
217 430 221 20 19 23 5 29 -113z m760 -625 c3 -87 13 -372 21 -633 9 -261 24
-743 35 -1071 11 -328 20 -627 20 -665 l-1 -69 -60 120 c-289 574 -653 928
-1124 1095 -207 73 -393 101 -665 101 -300 1 -619 -49 -970 -150 -74 -22 -136
-38 -138 -36 -2 2 167 90 375 196 208 105 446 227 528 269 83 42 546 279 1030
525 484 247 889 454 900 462 40 27 42 19 49 -144z m-1304 -2469 c0 -102 2
-116 20 -131 11 -10 20 -21 20 -25 0 -5 -34 -8 -75 -8 -75 0 -93 10 -55 30 18
9 20 21 20 94 0 62 -4 87 -15 96 -24 20 -18 34 23 51 59 25 62 20 62 -107z
m296 96 c12 0 34 -65 34 -100 0 -88 -59 -145 -167 -164 -47 -8 -41 9 13 34 25
13 54 37 65 54 25 41 25 111 -1 154 -29 47 -25 54 16 37 20 -8 38 -15 40 -15z
m490 20 c8 0 23 -9 34 -20 41 -41 15 -121 -54 -168 -17 -12 -48 -37 -69 -57
-20 -19 -42 -35 -47 -35 -23 0 -6 29 49 84 60 59 77 92 66 126 -9 27 -32 32
-67 14 -34 -17 -47 -12 -32 14 14 22 75 54 92 47 8 -3 20 -5 28 -5z m-586 -11
c0 -6 -4 -18 -10 -28 -13 -25 6 -88 30 -101 44 -23 6 -47 -47 -29 -37 12 -53
34 -53 74 0 31 24 81 42 88 22 9 38 7 38 -4z m390 0 c0 -18 -46 -43 -89 -47
-44 -4 -50 -8 -65 -40 -11 -23 -20 -32 -27 -25 -7 7 -2 28 14 65 l25 55 71 -1
c39 0 71 -4 71 -7z m-18 -109 c32 -39 19 -112 -25 -140 -33 -20 -87 -30 -129
-23 -54 8 -48 28 8 28 38 0 50 5 70 29 33 38 29 75 -11 96 -16 8 -32 16 -34
17 -1 1 0 7 4 13 13 20 96 6 117 -20z m285 -96 c3 -8 0 -26 -7 -40 -12 -22
-19 -24 -88 -24 -85 0 -93 15 -20 37 25 7 51 20 58 28 16 20 49 19 57 -1z"/>
<path d="M5729 5873 c-1 -4 -2 -14 -3 -21 -1 -15 -84 -82 -100 -82 -23 1 -91
46 -101 68 -12 26 -38 25 -43 -2 -3 -12 13 -33 45 -62 40 -36 45 -45 33 -54
-8 -6 -33 -9 -54 -8 -30 2 -42 -2 -52 -18 -12 -17 -12 -23 0 -40 11 -15 26
-19 63 -18 26 1 51 -4 56 -10 4 -6 4 -41 1 -78 -6 -64 -5 -68 14 -68 56 0 65
68 18 140 l-23 35 23 18 c32 24 48 21 88 -14 38 -32 62 -35 80 -7 12 20 -12
51 -58 75 l-30 16 43 36 c35 30 42 42 39 66 -2 19 -10 31 -20 33 -10 2 -19 0
-19 -5z"/>
<path d="M1349 5040 c-31 -34 -65 -60 -75 -60 -29 0 -46 -20 -32 -37 8 -10 8
-20 0 -38 -16 -34 -26 -31 -53 11 -21 34 -21 37 -5 70 9 19 16 41 16 49 0 22
-30 18 -57 -7 l-23 -22 -28 26 c-15 14 -37 31 -50 37 -25 13 -62 6 -62 -12 1
-19 24 -44 37 -40 6 2 26 -9 44 -25 l33 -30 -17 -73 c-23 -102 -26 -164 -7
-164 14 0 20 16 50 133 6 23 14 42 19 42 16 0 54 -85 57 -128 7 -87 65 -168
116 -160 35 5 32 24 -11 71 -45 49 -50 62 -23 64 10 1 25 -11 35 -28 12 -23
22 -29 36 -24 11 3 36 7 57 9 41 4 64 26 64 63 0 18 -6 23 -26 23 -14 0 -34
-5 -45 -11 -19 -10 -20 -8 -14 34 6 40 5 46 -14 52 -35 11 -36 47 -1 114 17
34 38 65 47 68 39 15 73 -88 38 -117 -16 -14 -20 -65 -6 -74 35 -22 71 55 71
149 0 61 -1 65 -30 80 -55 28 -80 20 -141 -45z m-40 -196 c9 -20 9 -30 0 -40
-29 -35 -61 0 -39 42 17 31 24 30 39 -2z"/>
<path d="M6363 5005 c-28 -19 -60 -46 -71 -60 -26 -32 -42 -32 -42 1 0 26 -2
26 -44 21 -58 -8 -94 -26 -102 -50 -10 -30 11 -43 40 -23 34 21 72 20 111 -4
37 -23 149 -139 141 -147 -8 -8 -116 68 -127 89 -11 21 -38 23 -63 5 -24 -18
-10 -47 25 -54 35 -7 49 -23 19 -23 -11 0 -23 -7 -26 -15 -5 -12 -14 -10 -50
11 -25 15 -48 24 -51 20 -4 -3 7 -26 25 -51 29 -41 30 -44 12 -50 -23 -7 -57
9 -82 39 -17 21 -17 21 -18 -15 0 -24 7 -42 23 -56 35 -31 56 -35 104 -17 42
16 44 16 66 -5 50 -46 81 -18 43 39 -33 51 -33 58 6 52 23 -3 35 0 45 14 14
19 15 19 28 -1 57 -82 60 -85 85 -83 20 3 26 9 28 35 2 18 -4 43 -14 58 -22
34 -10 46 56 53 36 3 55 10 65 26 19 26 19 50 0 66 -8 7 -15 28 -15 47 l0 34
-52 -7 c-48 -7 -51 -6 -44 12 26 64 3 65 -79 4 -37 -28 -70 -48 -73 -45 -8 8
20 36 60 61 21 14 38 31 38 39 0 22 -9 19 -67 -20z m97 -81 c0 -5 -63 -34 -75
-34 -16 0 -1 20 23 28 31 12 52 14 52 6z m111 -44 c10 -6 19 -17 19 -25 0 -20
-46 -19 -54 1 -13 35 -2 43 35 24z m-74 -16 c-10 -10 -67 -22 -67 -14 0 10 52
29 63 23 5 -3 6 -7 4 -9z"/>
<path d="M6450 3198 c0 -16 16 -33 51 -58 l51 -34 -60 -14 c-51 -11 -61 -17
-67 -39 -3 -14 -4 -27 -3 -29 2 -2 40 8 83 22 57 18 92 24 123 20 39 -5 42 -4
42 18 0 19 -7 24 -35 29 -19 3 -63 27 -101 56 -37 28 -71 51 -75 51 -5 0 -9
-10 -9 -22z"/>
<path d="M936 3131 c-108 -26 -123 -34 -108 -58 6 -10 27 -8 92 8 46 11 87 18
91 17 5 -2 -29 -32 -75 -68 -79 -61 -84 -67 -79 -95 3 -16 7 -32 9 -34 4 -4
130 21 196 39 29 8 35 14 31 30 -6 24 1 24 -98 0 -44 -10 -81 -17 -82 -16 -1
1 32 31 75 67 75 61 78 65 71 97 -4 18 -8 34 -10 36 -2 1 -53 -9 -113 -23z"/>
<path d="M6396 2942 c-5 -10 -46 -160 -46 -172 0 -23 32 -8 41 20 6 17 14 30
17 30 4 0 46 -11 94 -23 48 -13 90 -22 93 -19 3 3 5 13 5 23 0 17 -19 25 -147
59 -40 10 -42 12 -33 36 6 14 10 29 10 34 0 11 -28 21 -34 12z"/>
<path d="M907 2771 c4 -15 13 -21 33 -21 25 0 30 -6 44 -47 16 -47 16 -48 -6
-64 -18 -14 -20 -21 -12 -39 9 -20 14 -18 106 52 86 65 96 76 91 98 -3 14 -7
27 -9 29 -1 1 -59 5 -128 8 -124 6 -125 6 -119 -16z m198 -31 c3 -4 -13 -19
-35 -34 l-40 -26 -10 25 c-6 15 -10 31 -10 36 0 11 89 9 95 -1z"/>
<path d="M6303 2674 c-12 -32 12 -44 203 -111 6 -2 14 5 17 17 6 24 2 27 -122
73 -74 29 -93 33 -98 21z"/>
<path d="M1118 2529 c-90 -45 -114 -68 -88 -84 5 -3 45 12 89 35 44 22 83 40
87 40 3 0 -24 -39 -61 -86 -64 -82 -66 -86 -55 -115 7 -16 16 -29 21 -29 16 0
209 100 209 108 0 4 -4 13 -9 20 -6 11 -26 5 -89 -27 -45 -23 -84 -41 -87 -41
-3 0 23 37 59 83 63 81 64 83 51 115 -8 17 -18 32 -22 31 -4 0 -52 -22 -105
-50z"/>
<path d="M6243 2515 c-49 -35 -49 -136 -1 -154 31 -11 45 -5 97 42 39 35 45
38 58 24 25 -25 9 -66 -28 -74 -16 -3 -34 -14 -40 -24 -8 -15 -5 -20 16 -25
36 -9 70 17 90 70 15 38 15 48 3 72 -7 16 -25 33 -41 38 -24 9 -32 6 -70 -32
-58 -57 -97 -55 -83 4 5 17 13 24 30 24 22 0 36 16 36 41 0 14 -43 10 -67 -6z"/>
<path d="M6104 2262 c-16 -17 -39 -48 -51 -69 l-22 -40 97 -59 c53 -32 98 -60
102 -62 3 -1 11 7 18 18 11 18 8 22 -28 45 l-41 26 18 29 c20 35 21 35 67 13
29 -13 38 -14 51 -3 8 7 15 16 15 20 0 13 -87 43 -105 37 -10 -4 -15 0 -15 11
-1 25 -23 50 -52 57 -19 5 -31 0 -54 -23z m70 -49 c3 -8 -2 -28 -11 -43 -16
-28 -17 -29 -45 -12 -34 20 -34 22 -4 55 26 28 50 28 60 0z"/>
<path d="M1284 2254 c-53 -26 -79 -60 -79 -106 0 -33 6 -45 38 -74 38 -35 52
-40 76 -25 23 15 -3 49 -33 44 -20 -4 -28 0 -37 21 -11 23 -10 31 8 54 11 15
41 36 68 47 l47 20 19 -23 c14 -18 16 -29 9 -47 -9 -24 -4 -55 9 -55 31 1 46
49 27 93 -26 64 -86 84 -152 51z"/>
<path d="M1445 2004 c-38 -31 -78 -62 -88 -69 -15 -11 -17 -17 -7 -34 l11 -22
31 23 c16 13 36 27 44 33 10 7 21 1 43 -25 l29 -35 -41 -37 c-38 -33 -40 -38
-27 -52 14 -14 24 -8 104 53 48 37 87 72 86 77 -8 36 -18 38 -55 9 l-38 -28
-28 34 -29 34 36 32 c31 27 35 35 24 48 -7 8 -15 15 -19 15 -3 -1 -37 -26 -76
-56z"/>
<path d="M5934 2013 c-21 -27 -42 -53 -46 -59 -6 -8 24 -37 82 -83 49 -39 92
-71 94 -71 1 0 25 27 51 61 41 53 46 63 33 75 -12 13 -18 9 -47 -31 -28 -39
-35 -44 -52 -34 -32 16 -33 36 -5 70 30 35 32 45 12 52 -9 4 -25 -8 -41 -29
-29 -38 -33 -40 -60 -20 -18 13 -17 15 14 55 29 37 34 61 11 61 -5 0 -26 -21
-46 -47z"/>
<path d="M5812 1858 c-17 -17 -17 -19 33 -109 50 -91 52 -90 -63 -38 -68 31
-73 32 -89 16 -9 -9 -15 -18 -12 -20 2 -3 53 -25 114 -51 107 -45 110 -45 128
-27 18 18 17 21 -37 130 -31 61 -57 111 -59 111 -2 0 -8 -5 -15 -12z"/>
<path d="M1637 1733 c-101 -43 -106 -47 -91 -64 13 -14 20 -16 40 -7 20 10 28
8 49 -12 31 -29 39 -54 26 -77 -7 -13 -5 -23 6 -36 15 -16 20 -10 75 94 56
106 58 113 42 130 -10 11 -22 19 -28 19 -6 0 -59 -21 -119 -47z m86 -48 l-27
-44 -23 21 c-13 12 -23 24 -23 27 0 7 69 39 87 40 7 1 1 -17 -14 -44z"/>
<path d="M5583 1639 c-9 -9 6 -33 63 -100 42 -49 79 -89 83 -89 5 0 14 7 21
15 10 12 0 29 -61 97 -77 88 -87 96 -106 77z"/>
<path d="M1841 1534 c-61 -70 -71 -87 -61 -99 7 -8 16 -15 20 -15 4 0 34 32
65 70 32 39 60 69 62 66 3 -2 -7 -45 -21 -95 -14 -49 -26 -96 -26 -103 0 -7
12 -21 26 -32 22 -15 28 -16 38 -5 121 137 138 160 126 174 -7 8 -16 15 -19
15 -4 0 -32 -30 -61 -66 -30 -37 -56 -62 -58 -56 -1 5 8 50 22 98 l26 88 -22
23 c-12 13 -26 23 -32 22 -6 0 -44 -38 -85 -85z"/>
<path d="M5461 1531 c-16 -10 -14 -15 52 -98 27 -35 47 -63 45 -63 -1 0 -43
20 -93 44 l-90 43 -27 -19 c-16 -11 -28 -23 -28 -26 0 -4 32 -47 71 -95 57
-70 74 -85 85 -76 8 6 14 15 14 19 0 4 -25 38 -55 75 -31 37 -54 69 -52 71 2
2 45 -16 96 -41 88 -43 93 -44 116 -29 14 9 25 21 25 26 0 11 -127 171 -139
175 -3 2 -12 -1 -20 -6z"/>
<path d="M2126 1379 c-57 -45 -73 -125 -35 -173 19 -24 117 -82 124 -74 11 14
55 89 55 95 0 5 -16 18 -34 30 -30 19 -36 20 -47 7 -10 -12 -9 -17 6 -28 14
-10 15 -16 6 -34 -14 -26 -46 -18 -74 21 -17 22 -18 30 -8 58 16 46 50 79 81
79 36 0 72 -27 68 -52 -4 -27 29 -49 42 -28 19 29 -11 80 -62 106 -39 20 -91
17 -122 -7z"/>
<path d="M5214 1346 c-18 -14 -18 -16 9 -62 69 -121 71 -138 14 -158 -34 -12
-45 -2 -97 85 -36 61 -43 68 -60 59 -11 -6 -20 -12 -20 -14 0 -17 88 -150 107
-163 50 -33 153 26 153 88 0 17 -14 57 -32 88 -52 93 -52 93 -74 77z"/>
<path d="M2525 1095 c-26 -57 -44 -108 -40 -114 14 -23 37 -9 55 34 l20 46 40
-21 c22 -11 40 -25 40 -31 0 -5 -9 -27 -20 -48 -17 -34 -18 -40 -4 -45 28 -11
31 -7 72 78 55 115 57 123 33 136 -19 9 -23 6 -37 -30 -18 -45 -21 -46 -69
-26 -41 17 -39 13 -20 59 19 45 19 44 -4 56 -16 9 -23 -1 -66 -94z"/>
<path d="M4739 1121 c-61 -19 -99 -63 -99 -113 0 -42 39 -105 76 -123 33 -15
39 -15 91 1 30 10 63 24 74 33 18 16 18 17 -3 66 -12 28 -22 51 -23 52 -5 8
-85 -32 -85 -42 0 -20 12 -25 31 -14 16 8 21 5 31 -16 10 -22 9 -28 -3 -36
-49 -32 -97 -19 -122 34 -24 50 -21 82 9 106 31 24 47 26 66 7 9 -9 21 -10 36
-5 58 22 -17 69 -79 50z"/>
<path d="M2827 963 c-68 -84 -76 -98 -60 -104 11 -4 26 0 40 13 20 19 24 19
65 6 35 -12 44 -20 46 -41 2 -15 12 -32 23 -37 18 -10 19 -6 19 118 0 126 -1
130 -22 136 -13 3 -25 6 -28 6 -3 0 -40 -44 -83 -97z m93 -7 l0 -54 -35 10
-34 11 31 44 c17 23 33 43 35 43 2 0 3 -24 3 -54z"/>
<path d="M4503 1032 c-9 -6 -7 -25 8 -82 10 -40 19 -80 19 -88 0 -9 -28 19
-62 61 -48 60 -68 77 -87 77 -54 0 -55 -8 -26 -126 15 -60 29 -111 30 -112 2
-2 12 -1 23 2 19 6 19 8 -4 98 -13 51 -22 93 -20 95 1 2 33 -35 70 -81 65 -81
69 -84 98 -75 17 4 32 10 35 12 8 8 -52 227 -62 227 -5 0 -15 -4 -22 -8z"/>
<path d="M3116 982 c-3 -9 -13 -55 -21 -102 -9 -47 -18 -93 -21 -102 -4 -14 1
-18 19 -18 23 0 26 6 43 96 20 107 20 107 56 -31 l23 -90 35 0 34 0 18 90 c10
50 20 100 23 113 4 18 1 22 -19 22 -20 0 -25 -6 -31 -37 -16 -88 -27 -134 -32
-130 -2 3 -15 47 -28 97 -13 50 -25 93 -27 94 -1 2 -17 6 -35 9 -25 5 -33 2
-37 -11z"/>
<path d="M4069 937 c-58 -39 -64 -126 -13 -187 22 -25 33 -30 70 -30 97 0 140
60 114 156 -22 79 -102 108 -171 61z m92 -17 c14 0 39 -63 39 -97 0 -42 -26
-73 -60 -73 -46 0 -77 62 -65 126 6 35 36 58 63 48 8 -2 18 -4 23 -4z"/>
<path d="M3474 936 c-47 -21 -64 -52 -64 -117 0 -47 4 -60 26 -82 29 -30 68
-40 134 -35 l45 3 3 56 c3 56 3 56 -29 63 -50 10 -59 7 -59 -14 0 -13 7 -20
20 -20 16 0 20 -7 20 -31 0 -31 0 -32 -42 -26 -24 3 -48 14 -56 24 -20 26 -11
122 13 139 29 22 69 17 93 -11 25 -29 52 -33 52 -7 0 27 -13 40 -53 57 -44 18
-62 18 -103 1z"/>
<path d="M3831 883 l-41 -58 0 53 c0 50 -1 52 -26 52 l-27 0 5 -115 c3 -64 8
-118 10 -121 3 -2 12 -2 21 2 12 4 17 22 19 62 l3 56 44 -57 c35 -46 49 -57
73 -57 l29 0 -45 59 c-25 33 -46 64 -46 69 0 5 16 30 35 55 19 25 35 48 35 51
0 3 -11 6 -24 6 -18 0 -35 -15 -65 -57z"/>
</g>
</svg>
